<svg xmlns="http://www.w3.org/2000/svg" xmlns:xlink="http://www.w3.org/1999/xlink" width="200" zoomAndPan="magnify" viewBox="0 0 150 74.999997" height="100" preserveAspectRatio="xMidYMid meet" version="1.0"><defs><g/><clipPath id="00a0e91778"><path d="M 1.421875 5.164062 L 67.917969 5.164062 L 67.917969 71.757812 L 1.421875 71.757812 Z M 1.421875 5.164062 " clip-rule="nonzero"/></clipPath><clipPath id="6c97c93c0f"><path d="M 67.917969 55.109375 L 67.917969 21.8125 L 1.421875 5.164062 L 1.421875 71.757812 Z M 67.917969 55.109375 " clip-rule="nonzero"/></clipPath></defs><g clip-path="url(#00a0e91778)"><g clip-path="url(#6c97c93c0f)"><path fill="#004aad" d="M 1.421875 71.757812 L 1.421875 5.164062 L 67.917969 5.164062 L 67.917969 71.757812 Z M 1.421875 71.757812 " fill-opacity="1" fill-rule="nonzero"/></g></g><g fill="#000000" fill-opacity="1"><g transform="translate(67.919491, 46.457842)"><g><path d="M 2.34375 0 C 2.175781 0 2.023438 -0.0625 1.890625 -0.1875 C 1.765625 -0.3125 1.703125 -0.457031 1.703125 -0.625 L 1.703125 -16.9375 C 1.703125 -17.125 1.757812 -17.28125 1.875 -17.40625 C 2 -17.53125 2.15625 -17.59375 2.34375 -17.59375 L 5.171875 -17.59375 C 5.554688 -17.59375 5.84375 -17.4375 6.03125 -17.125 L 11.96875 -7.75 L 11.96875 -16.9375 C 11.96875 -17.125 12.023438 -17.28125 12.140625 -17.40625 C 12.253906 -17.53125 12.40625 -17.59375 12.59375 -17.59375 L 15.78125 -17.59375 C 15.96875 -17.59375 16.117188 -17.53125 16.234375 -17.40625 C 16.359375 -17.28125 16.421875 -17.125 16.421875 -16.9375 L 16.421875 -0.65625 C 16.421875 -0.46875 16.359375 -0.3125 16.234375 -0.1875 C 16.117188 -0.0625 15.96875 0 15.78125 0 L 12.953125 0 C 12.566406 0 12.28125 -0.160156 12.09375 -0.484375 L 6.1875 -9.484375 L 6.1875 -0.625 C 6.1875 -0.445312 6.125 -0.296875 6 -0.171875 C 5.875 -0.0546875 5.71875 0 5.53125 0 Z M 2.34375 0 "/></g></g></g><g fill="#000000" fill-opacity="1"><g transform="translate(86.547157, 46.457842)"><g><path d="M 7.5625 0.25 C 5.519531 0.25 3.910156 -0.296875 2.734375 -1.390625 C 1.566406 -2.492188 0.96875 -4.09375 0.9375 -6.1875 L 0.9375 -6.96875 C 1 -8.957031 1.613281 -10.515625 2.78125 -11.640625 C 3.957031 -12.765625 5.546875 -13.328125 7.546875 -13.328125 C 8.984375 -13.328125 10.203125 -13.035156 11.203125 -12.453125 C 12.203125 -11.878906 12.945312 -11.082031 13.4375 -10.0625 C 13.925781 -9.050781 14.171875 -7.898438 14.171875 -6.609375 L 14.171875 -5.984375 C 14.171875 -5.796875 14.109375 -5.640625 13.984375 -5.515625 C 13.859375 -5.390625 13.707031 -5.328125 13.53125 -5.328125 L 5.5625 -5.328125 L 5.5625 -5.171875 C 5.570312 -4.421875 5.742188 -3.816406 6.078125 -3.359375 C 6.421875 -2.898438 6.898438 -2.671875 7.515625 -2.671875 C 7.921875 -2.671875 8.242188 -2.75 8.484375 -2.90625 C 8.722656 -3.0625 8.953125 -3.265625 9.171875 -3.515625 C 9.328125 -3.679688 9.445312 -3.785156 9.53125 -3.828125 C 9.625 -3.867188 9.773438 -3.890625 9.984375 -3.890625 L 13.28125 -3.890625 C 13.425781 -3.890625 13.550781 -3.84375 13.65625 -3.75 C 13.769531 -3.664062 13.828125 -3.554688 13.828125 -3.421875 C 13.828125 -2.984375 13.578125 -2.46875 13.078125 -1.875 C 12.585938 -1.289062 11.867188 -0.789062 10.921875 -0.375 C 9.972656 0.0390625 8.851562 0.25 7.5625 0.25 Z M 9.546875 -7.890625 L 9.546875 -7.9375 C 9.546875 -8.75 9.367188 -9.375 9.015625 -9.8125 C 8.671875 -10.257812 8.179688 -10.484375 7.546875 -10.484375 C 6.910156 -10.484375 6.421875 -10.257812 6.078125 -9.8125 C 5.734375 -9.375 5.5625 -8.75 5.5625 -7.9375 L 5.5625 -7.890625 Z M 9.546875 -7.890625 "/></g></g></g><g fill="#000000" fill-opacity="1"><g transform="translate(102.057664, 46.457842)"><g><path d="M 5.109375 0 C 4.867188 0 4.6875 -0.0507812 4.5625 -0.15625 C 4.4375 -0.269531 4.34375 -0.425781 4.28125 -0.625 L 0.65625 -12.265625 L 0.609375 -12.5 C 0.609375 -12.664062 0.664062 -12.800781 0.78125 -12.90625 C 0.894531 -13.019531 1.03125 -13.078125 1.1875 -13.078125 L 3.921875 -13.078125 C 4.117188 -13.078125 4.285156 -13.019531 4.421875 -12.90625 C 4.554688 -12.800781 4.640625 -12.679688 4.671875 -12.546875 L 6.734375 -5.578125 L 8.921875 -12.5 C 8.953125 -12.644531 9.035156 -12.773438 9.171875 -12.890625 C 9.304688 -13.015625 9.484375 -13.078125 9.703125 -13.078125 L 11.4375 -13.078125 C 11.65625 -13.078125 11.832031 -13.015625 11.96875 -12.890625 C 12.101562 -12.773438 12.195312 -12.644531 12.25 -12.5 L 14.4375 -5.578125 L 16.46875 -12.546875 C 16.519531 -12.679688 16.609375 -12.800781 16.734375 -12.90625 C 16.859375 -13.019531 17.019531 -13.078125 17.21875 -13.078125 L 19.96875 -13.078125 C 20.132812 -13.078125 20.269531 -13.019531 20.375 -12.90625 C 20.488281 -12.800781 20.546875 -12.664062 20.546875 -12.5 C 20.546875 -12.414062 20.535156 -12.335938 20.515625 -12.265625 L 16.875 -0.625 C 16.75 -0.207031 16.476562 0 16.0625 0 L 13.671875 0 C 13.253906 0 12.972656 -0.207031 12.828125 -0.625 L 10.578125 -7.3125 L 8.328125 -0.625 C 8.203125 -0.207031 7.921875 0 7.484375 0 Z M 5.109375 0 "/></g></g></g><g fill="#000000" fill-opacity="1"><g transform="translate(123.701941, 46.457842)"><g><path d="M 6.90625 0.25 C 5.539062 0.25 4.394531 0.0546875 3.46875 -0.328125 C 2.550781 -0.710938 1.867188 -1.171875 1.421875 -1.703125 C 0.972656 -2.242188 0.75 -2.734375 0.75 -3.171875 C 0.75 -3.335938 0.8125 -3.472656 0.9375 -3.578125 C 1.0625 -3.691406 1.203125 -3.75 1.359375 -3.75 L 4.40625 -3.75 C 4.5 -3.75 4.582031 -3.710938 4.65625 -3.640625 C 4.9375 -3.460938 5.09375 -3.351562 5.125 -3.3125 C 5.445312 -3.082031 5.742188 -2.90625 6.015625 -2.78125 C 6.296875 -2.65625 6.628906 -2.59375 7.015625 -2.59375 C 7.460938 -2.59375 7.832031 -2.679688 8.125 -2.859375 C 8.425781 -3.035156 8.578125 -3.28125 8.578125 -3.59375 C 8.578125 -3.863281 8.492188 -4.082031 8.328125 -4.25 C 8.171875 -4.414062 7.867188 -4.578125 7.421875 -4.734375 C 6.984375 -4.898438 6.3125 -5.066406 5.40625 -5.234375 C 2.507812 -5.816406 1.0625 -7.15625 1.0625 -9.25 C 1.0625 -9.9375 1.28125 -10.59375 1.71875 -11.21875 C 2.164062 -11.851562 2.820312 -12.363281 3.6875 -12.75 C 4.550781 -13.132812 5.582031 -13.328125 6.78125 -13.328125 C 8.007812 -13.328125 9.070312 -13.132812 9.96875 -12.75 C 10.863281 -12.375 11.546875 -11.921875 12.015625 -11.390625 C 12.484375 -10.867188 12.71875 -10.390625 12.71875 -9.953125 C 12.71875 -9.804688 12.660156 -9.671875 12.546875 -9.546875 C 12.441406 -9.429688 12.316406 -9.375 12.171875 -9.375 L 9.40625 -9.375 C 9.25 -9.375 9.128906 -9.410156 9.046875 -9.484375 C 8.847656 -9.578125 8.648438 -9.703125 8.453125 -9.859375 C 8.148438 -10.054688 7.882812 -10.207031 7.65625 -10.3125 C 7.425781 -10.425781 7.132812 -10.484375 6.78125 -10.484375 C 6.363281 -10.484375 6.035156 -10.390625 5.796875 -10.203125 C 5.566406 -10.023438 5.453125 -9.789062 5.453125 -9.5 C 5.453125 -9.25 5.523438 -9.039062 5.671875 -8.875 C 5.816406 -8.71875 6.109375 -8.566406 6.546875 -8.421875 C 6.992188 -8.273438 7.671875 -8.113281 8.578125 -7.9375 C 10.210938 -7.65625 11.40625 -7.148438 12.15625 -6.421875 C 12.90625 -5.691406 13.28125 -4.84375 13.28125 -3.875 C 13.28125 -2.613281 12.722656 -1.609375 11.609375 -0.859375 C 10.492188 -0.117188 8.925781 0.25 6.90625 0.25 Z M 6.90625 0.25 "/></g></g></g><g fill="#ffffff" fill-opacity="1"><g transform="translate(8.209192, 44.887134)"><g><path d="M 0.78125 0 C 0.644531 0 0.519531 -0.0507812 0.40625 -0.15625 C 0.300781 -0.269531 0.25 -0.394531 0.25 -0.53125 C 0.25 -0.625 0.273438 -0.722656 0.328125 -0.828125 L 5.8125 -8.96875 L 0.75 -16.765625 C 0.695312 -16.867188 0.671875 -16.972656 0.671875 -17.078125 C 0.671875 -17.203125 0.722656 -17.316406 0.828125 -17.421875 C 0.941406 -17.535156 1.066406 -17.59375 1.203125 -17.59375 L 5.046875 -17.59375 C 5.421875 -17.59375 5.722656 -17.410156 5.953125 -17.046875 L 8.796875 -12.671875 L 11.734375 -17.046875 C 11.972656 -17.410156 12.269531 -17.59375 12.625 -17.59375 L 16.296875 -17.59375 C 16.421875 -17.59375 16.535156 -17.535156 16.640625 -17.421875 C 16.753906 -17.316406 16.8125 -17.203125 16.8125 -17.078125 C 16.8125 -16.972656 16.789062 -16.867188 16.75 -16.765625 L 11.640625 -9.03125 L 17.171875 -0.828125 C 17.222656 -0.722656 17.25 -0.625 17.25 -0.53125 C 17.25 -0.394531 17.191406 -0.269531 17.078125 -0.15625 C 16.972656 -0.0507812 16.851562 0 16.71875 0 L 12.75 0 C 12.375 0 12.078125 -0.164062 11.859375 -0.5 L 8.640625 -5.171875 L 5.5 -0.5 C 5.28125 -0.164062 4.988281 0 4.625 0 Z M 0.78125 0 "/></g></g></g><g fill="#ffffff" fill-opacity="1"><g transform="translate(26.2084, 44.887134)"><g><path d="M 3.890625 4.78125 C 3.742188 4.78125 3.617188 4.726562 3.515625 4.625 C 3.421875 4.519531 3.375 4.394531 3.375 4.25 C 3.375 4.132812 3.390625 4.023438 3.421875 3.921875 L 5.40625 -0.796875 L 0.578125 -12.21875 C 0.523438 -12.351562 0.5 -12.445312 0.5 -12.5 C 0.53125 -12.664062 0.597656 -12.800781 0.703125 -12.90625 C 0.816406 -13.019531 0.953125 -13.078125 1.109375 -13.078125 L 4.09375 -13.078125 C 4.445312 -13.078125 4.691406 -12.898438 4.828125 -12.546875 L 7.625 -5.40625 L 10.484375 -12.546875 C 10.648438 -12.898438 10.898438 -13.078125 11.234375 -13.078125 L 14.203125 -13.078125 C 14.359375 -13.078125 14.488281 -13.019531 14.59375 -12.90625 C 14.695312 -12.800781 14.75 -12.679688 14.75 -12.546875 C 14.75 -12.429688 14.734375 -12.320312 14.703125 -12.21875 L 7.59375 4.25 C 7.425781 4.601562 7.164062 4.78125 6.8125 4.78125 Z M 3.890625 4.78125 "/></g></g></g><g fill="#ffffff" fill-opacity="1"><g transform="translate(41.81946, 44.887134)"><g><path d="M 1.578125 0 C 1.410156 0 1.265625 -0.0625 1.140625 -0.1875 C 1.015625 -0.3125 0.953125 -0.457031 0.953125 -0.625 L 0.953125 -2.71875 C 0.953125 -3.019531 1.078125 -3.296875 1.328125 -3.546875 L 7.140625 -9.703125 L 1.78125 -9.703125 C 1.613281 -9.703125 1.46875 -9.765625 1.34375 -9.890625 C 1.21875 -10.015625 1.15625 -10.160156 1.15625 -10.328125 L 1.15625 -12.4375 C 1.15625 -12.625 1.21875 -12.773438 1.34375 -12.890625 C 1.46875 -13.015625 1.613281 -13.078125 1.78125 -13.078125 L 12.015625 -13.078125 C 12.203125 -13.078125 12.351562 -13.015625 12.46875 -12.890625 C 12.582031 -12.773438 12.640625 -12.625 12.640625 -12.4375 L 12.640625 -10.1875 C 12.640625 -9.914062 12.523438 -9.660156 12.296875 -9.421875 L 6.65625 -3.375 L 12.546875 -3.375 C 12.734375 -3.375 12.882812 -3.3125 13 -3.1875 C 13.113281 -3.070312 13.171875 -2.921875 13.171875 -2.734375 L 13.171875 -0.625 C 13.171875 -0.457031 13.113281 -0.3125 13 -0.1875 C 12.882812 -0.0625 12.734375 0 12.546875 0 Z M 1.578125 0 "/></g></g></g></svg>